<svg viewBox="0 0 750 471" xmlns="http://www.w3.org/2000/svg"><g fill="none" fill-rule="evenodd"><rect fill="#F4F4F4" width="750" height="471" rx="40"/><path d="M618.578 422.144c-1.213.03-2.212.432-2.997 1.207-.786.776-1.192 1.746-1.22 2.911.028 1.157.434 2.125 1.22 2.904.785.78 1.784 1.184 2.997 1.215 1.185-.03 2.172-.436 2.96-1.215.788-.78 1.197-1.747 1.227-2.904-.03-1.165-.437-2.135-1.223-2.91-.786-.776-1.774-1.179-2.964-1.208zm0 7.329c-.924-.023-1.686-.336-2.286-.94-.6-.602-.91-1.36-.932-2.27.021-.916.332-1.672.932-2.27.6-.6 1.362-.91 2.286-.93.905.02 1.655.33 2.251.93.596.598.905 1.354.927 2.27-.022.91-.33 1.668-.927 2.27-.596.604-1.346.917-2.25.94zm.242-5.139h-1.765v3.826h.817v-1.433h.373l1.16 1.433h.98l-1.252-1.443c.39-.05.691-.176.902-.38.21-.204.317-.465.319-.781-.003-.378-.136-.675-.4-.891-.264-.216-.642-.327-1.134-.33zm-.01.717c.22 0 .391.043.516.127.125.085.188.21.19.378a.446.446 0 01-.19.386c-.125.086-.297.129-.516.129h-.938v-1.02h.938zm-458.604 2.703h-8.755V386.87h8.583v4.981s7.54-6.088 12.017-6.012c8.707.148 13.905 7.558 13.905 7.558s4.218-7.558 13.734-7.558c14.072 0 16.137 12.883 16.137 12.883v28.859h-8.412v-25.423s.03-7.73-9.098-7.73c-9.44 0-10.3 7.73-10.3 7.73v25.423h-8.756v-25.595s-.84-8.073-8.755-8.073c-10.278 0-10.472 8.245-10.472 8.245l.172 25.595zm266.254-41.919c-4.478-.076-12.017 6.011-12.017 6.011v-4.97h-8.592v40.873h8.76l-.168-25.592s.194-8.228 10.473-8.228c1.909 0 3.391.462 4.564 1.175v-.033l2.853-7.96c-1.721-.725-3.68-1.239-5.873-1.276zm123.33 0c-4.477-.076-12.016 6.011-12.016 6.011v-4.97h-8.592v40.873h8.76l-.168-25.592s.194-8.228 10.472-8.228c1.91 0 3.392.462 4.565 1.175v-.033l2.853-7.96c-1.721-.725-3.68-1.239-5.874-1.276zm-305.654-.168c-13.102 0-20.036 11.784-20.071 21.629-.036 10.091 7.893 21.73 20.44 21.73 7.32 0 13.334-5.408 13.334-5.408l-.016 4.165h8.618V386.86h-8.649v5.154s-5.647-6.347-13.656-6.347zm1.678 8.329c7.04 0 12.755 6.127 12.755 13.67 0 7.541-5.715 13.635-12.755 13.635-7.04 0-12.72-6.094-12.72-13.636 0-7.542 5.68-13.669 12.72-13.669zm249.646-8.329c-13.102 0-20.036 11.784-20.071 21.629-.036 10.091 7.893 21.73 20.44 21.73 7.32 0 13.334-5.408 13.334-5.408l-.016 4.165h8.618V386.86h-8.648v5.154s-5.648-6.347-13.657-6.347zm1.678 8.329c7.04 0 12.755 6.127 12.755 13.67 0 7.541-5.715 13.635-12.755 13.635-7.04 0-12.72-6.094-12.72-13.636 0-7.542 5.68-13.669 12.72-13.669zm81.067-8.329c-13.103 0-20.037 11.784-20.072 21.629-.036 10.091 7.894 21.73 20.441 21.73 7.32 0 13.333-5.408 13.333-5.408l-.015 4.165h8.617v-57.078h-8.648v21.31s-5.647-6.348-13.656-6.348zm1.678 8.329c7.04 0 12.755 6.127 12.755 13.67 0 7.541-5.715 13.635-12.755 13.635-7.04 0-12.72-6.094-12.72-13.636 0-7.542 5.68-13.669 12.72-13.669zm-287.148 35.132c-8.927 0-17.167-5.497-17.167-5.497l3.777-5.84s7.797 3.607 13.39 3.607c3.634 0 9.712-1.174 9.785-4.81.077-3.842-10.214-4.981-10.214-4.981s-15.365-.21-15.365-12.884c0-7.97 7.674-13.055 17.51-13.055 5.684 0 16.31 4.982 16.31 4.982l-4.293 6.7s-8.203-3.28-12.532-3.436c-3.655-.132-8.068 1.619-8.068 4.81 0 8.668 25.579-.676 25.579 16.834 0 11.487-10.418 13.57-18.712 13.57zm32.93-54.108v11.89h-7.62v8.597h7.62v20.555s-.674 13.904 14.265 13.904c4.13 0 12.217-3.056 12.217-3.056l-3.457-8.934s-3.216 2.745-6.847 2.653c-6.904-.174-6.713-4.6-6.713-4.6v-20.522h14.231v-8.598h-14.23V375.02h-9.466zm51.857 11.15c-14.05 0-21.069 11.58-21.011 21.63.06 10.335 6.392 21.965 21.85 21.965 6.617 0 15.91-5.81 15.91-5.81l-3.994-6.953s-6.342 4.5-11.916 4.5c-11.16 0-11.882-10.915-11.882-10.915h29.873s2.229-24.416-18.83-24.416zm-1.275 8.027c.331-.018.686 0 1.04 0 10.514 0 10.439 9.942 10.439 9.942h-21.247s-.502-9.357 9.768-9.942zm90.132 22.7l4.006 8.017s-6.35 4.13-13.474 4.13c-14.752 0-22.943-11.11-22.943-21.621 0-16.52 13.035-21.378 21.85-21.378 8.001 0 14.93 4.616 14.93 4.616l-4.49 8.016s-2.723-4.251-10.683-4.251c-7.946 0-12.139 6.855-12.139 13.361 0 7.29 4.88 13.483 12.26 13.483 5.79 0 10.683-4.373 10.683-4.373z" fill="#000"/><path d="M624.508 278.632v-5.52h-1.44l-1.658 3.796-1.657-3.797h-1.44v5.521h1.017v-4.164l1.553 3.59h1.055l1.553-3.6v4.174h1.017zm-9.123 0v-4.578h1.845v-.933h-4.698v.933h1.845v4.578h1.008zm9.412-82.072c0 85.426-69.077 154.677-154.288 154.677-85.21 0-154.288-69.251-154.288-154.676 0-85.426 69.077-154.677 154.288-154.677 85.21 0 154.288 69.251 154.288 154.677z" fill="#F79F1A"/><path d="M434.46 196.56c0 85.426-69.078 154.677-154.288 154.677-85.211 0-154.288-69.251-154.288-154.676 0-85.426 69.077-154.677 154.288-154.677 85.21 0 154.287 69.251 154.287 154.677z" fill="#EA001B"/><path d="M375.34 74.798c-35.999 28.317-59.107 72.318-59.107 121.748 0 49.43 23.108 93.465 59.108 121.782 35.999-28.317 59.107-72.352 59.107-121.782 0-49.43-23.108-93.431-59.107-121.748z" fill="#FF5F01"/></g></svg>L401.948561,24.8598688 L404.801559,16.9000798 C403.079933,16.1750713 401.122064,15.6611201 398.92774,15.6238267 L398.92774,15.623773 L398.92774,15.623773 Z" id="path3013"></path>
                    <path d="M93.2735295,15.4558449 C80.1708646,15.4558449 73.2368626,27.2396859 73.2018479,37.0849763 C73.1658666,47.1762746 81.0955959,58.8148646 93.6427411,58.8148646 C100.962678,58.8148646 106.976041,53.4075817 106.976041,53.4075817 L106.960145,57.5721971 L115.577998,57.5721971 L115.577998,16.6488272 L106.929792,16.6488272 L106.929792,21.8035248 C106.929792,21.8035248 101.282654,15.4558449 93.2735725,15.4558449 L93.2735295,15.4558449 L93.2735295,15.4558449 Z M94.9517638,23.7850756 C101.991433,23.7850756 107.706344,29.9122942 107.706344,37.454418 C107.706344,44.9965418 101.991433,51.0901748 94.9517638,51.0901748 C87.9120947,51.0901748 82.2307482,44.9965418 82.2307482,37.454418 C82.2307482,29.9122942 87.9120947,23.7850756 94.9517638,23.7850756 L94.9517638,23.7850756 L94.9517638,23.7850756 Z" id="path3015"></path>
                    <path d="M344.597578,15.4558449 C331.494913,15.4558449 324.560911,27.2396859 324.525896,37.0849763 C324.489915,47.1762746 332.419644,58.8148646 344.966789,58.8148646 C352.286726,58.8148646 358.300089,53.4075817 358.300089,53.4075817 L358.284193,57.5721971 L366.902046,57.5721971 L366.902046,16.6488272 L358.25384,16.6488272 L358.25384,21.8035248 C358.25384,21.8035248 352.606702,15.4558449 344.59762,15.4558449 L344.597578,15.4558449 L344.597578,15.4558449 Z M346.275812,23.7850756 C353.315481,23.7850756 359.030392,29.9122942 359.030392,37.454418 C359.030392,44.9965418 353.315481,51.0901748 346.275812,51.0901748 C339.236143,51.0901748 333.554796,44.9965418 333.554796,37.454418 C333.554796,29.9122942 339.236143,23.7850756 346.275812,23.7850756 L346.275812,23.7850756 L346.275812,23.7850756 Z" id="path3020"></path>
                    <path d="M427.342249,15.4558449 C414.239584,15.4558449 407.305582,27.2396859 407.270567,37.0849763 C407.234586,47.1762746 415.164315,58.8148646 427.71146,58.8148646 C435.031397,58.8148646 441.04476,53.4075817 441.04476,53.4075817 L441.028864,57.5721971 L449.646718,57.5721971 L449.646718,0.49407462 L440.998511,0.49407462 L440.998511,21.8035248 C440.998511,21.8035248 435.351373,15.4558449 427.342292,15.4558449 L427.342249,15.4558449 L427.342249,15.4558449 Z M429.020483,23.7850756 C436.060152,23.7850756 441.775063,29.9122942 441.775063,37.454418 C441.775063,44.9965418 436.060152,51.0901748 429.020483,51.0901748 C421.980814,51.0901748 416.299467,44.9965418 416.299467,37.454418 C416.299467,29.9122942 421.980814,23.7850756 429.020483,23.7850756 L429.020483,23.7850756 L429.020483,23.7850756 Z" id="path3022"></path>
                    <path d="M141.872122,58.9170078 C132.94558,58.9170078 124.705176,53.4201669 124.705176,53.4201669 L128.481907,47.5797641 C128.481907,47.5797641 136.278978,51.1870733 141.872122,51.1870733 C145.50613,51.1870733 151.583937,50.0128667 151.657274,46.3773348 C151.734822,42.5349478 141.442945,41.39581 141.442945,41.39581 C141.442945,41.39581 126.078536,41.1860853 126.078536,28.5125858 C126.078536,20.5421246 133.751938,15.4575752 143.588818,15.4575752 C149.272667,15.4575752 159.89741,20.4390893 159.89741,20.4390893 L155.605674,27.1383702 C155.605674,27.1383702 147.402218,23.858921 143.073802,23.7028366 C139.418806,23.5710413 135.005346,25.3221465 135.005346,28.5125858 C135.005346,37.1806926 160.584084,27.837198 160.584084,45.3466704 C160.584084,56.8338188 150.166691,58.9170078 141.872122,58.9170078 L141.872122,58.9170078 L141.872122,58.9170078 Z" id="path3024"></path>
                    <path d="M174.802149,4.80920724 L174.802149,16.6985124 L167.182966,16.6985124 L167.182966,25.296428 L174.802149,25.296428 L174.802149,45.85082 C174.802149,45.85082 174.127827,59.7552616 189.067141,59.7552616 C193.19753,59.7552616 201.284686,56.6989713 201.284686,56.6989713 L197.827523,47.7651996 C197.827523,47.7651996 194.611468,50.5102454 190.980328,50.4184626 C184.076195,50.2440217 184.267391,45.8172343 184.267391,45.8172343 L184.267391,25.296428 L198.498817,25.296428 L198.498817,16.6985124 L184.267391,16.6985124 L184.267391,4.80920724 L174.802149,4.80920724 L174.802149,4.80920724 L174.802149,4.80920724 Z" id="path3026"></path>
                    <path d="M226.659588,15.959629 C212.610087,15.959629 205.590417,27.5389793 205.648095,37.5887604 C205.707384,47.9238419 212.040304,59.5537479 227.498705,59.5537479 C234.115072,59.5537479 243.408366,53.7434378 243.408366,53.7434378 L239.414168,46.791217 C239.414168,46.791217 233.072548,51.2916884 227.498705,51.2916884 C216.339172,51.2916884 215.616806,40.3763659 215.616806,40.3763659 L245.489376,40.3763659 C245.489376,40.3763659 247.717985,15.959629 226.659588,15.959629 L226.659588,15.959629 L226.659588,15.959629 Z M225.38413,23.9865893 C225.715416,23.9677813 226.070568,23.9865893 226.424635,23.9865893 C236.937954,23.9865893 236.863252,33.9279292 236.863252,33.9279292 L215.616806,33.9279292 C215.616806,33.9279292 215.114206,24.5707962 225.38413,23.9865893 L225.38413,23.9865893 L225.38413,23.9865893 Z" id="path3034"></path>
                    <path d="M315.5162,46.686 L319.52203,54.7026427 C319.52203,54.7026427 313.17302,58.8324258 306.047898,58.8324258 C291.296557,58.8324258 283.105442,47.7234997 283.105442,37.2117848 C283.105442,20.6912339 296.140698,15.8340672 304.955397,15.8340672 C312.956369,15.8340672 319.886193,20.4497077 319.886193,20.4497077 L315.394819,28.4663505 C315.394819,28.4663505 312.671859,24.2151004 304.712614,24.2151004 C296.766655,24.2151004 292.573755,31.0702185 292.573755,37.5761752 C292.573755,44.8669927 297.454114,51.0587064 304.834005,51.0587064 C310.623393,51.0587064 315.5162,46.686 315.5162,46.686 L315.5162,46.686 L315.5162,46.686 Z" id="path3037"></path>
                </g>
                <path d="M498.787985,236.781279 L498.787985,231.260623 L497.347484,231.260623 L495.690436,235.057252 L494.033388,231.260623 L492.592886,231.260623 L492.592886,236.781279 L493.609711,236.781279 L493.609711,232.617235 L495.163193,236.206603 L496.217678,236.206603 L497.771161,232.607814 L497.771161,236.781279 L498.787985,236.781279 L498.787985,236.781279 Z M489.664807,236.781279 L489.664807,232.202715 L491.510156,232.202715 L491.510156,231.270044 L486.812049,231.270044 L486.812049,232.202715 L488.657397,232.202715 L488.657397,236.781279 L489.664807,236.781279 L489.664807,236.781279 Z" id="path3057" fill="#F79F1A"></path>
                <path d="M499.076678,154.709802 C499.076678,240.135159 429.999707,309.386105 344.788929,309.386105 C259.578151,309.386105 190.501159,240.135159 190.501159,154.709802 C190.501159,69.2844326 259.578151,0.0334920174 344.788929,0.0334920174 C429.999707,0.0334920174 499.076678,69.2844326 499.076678,154.709802 L499.076678,154.709802 L499.076678,154.709802 Z" id="path2997" fill="#F79F1A"></path>
                <path d="M308.73932,154.709802 C308.73932,240.135159 239.662349,309.386105 154.451571,309.386105 C69.2407931,309.386105 0.163801275,240.135159 0.163801275,154.709802 C0.163801275,69.2844326 69.2407931,0.0334920174 154.451571,0.0334920174 C239.662349,0.0334920174 308.73932,69.2844326 308.73932,154.709802 L308.73932,154.709802 L308.73932,154.709802 Z" id="path2995" fill="#EA001B"></path>
                <path d="M249.620562,32.9474812 C213.621326,61.2636823 190.513152,105.265345 190.513152,154.695309 C190.513152,204.125274 213.621326,248.16052 249.620562,276.476723 C285.619799,248.16052 308.727973,204.125274 308.727973,154.695309 C308.727973,105.265345 285.619799,61.2636823 249.620562,32.9474812 L249.620562,32.9474812 L249.620562,32.9474812 Z" id="path2999" fill="#FF5F01"></path>
            </g>
        </g>
    </g>
</svg>