<svg id="Layer_1" data-name="Layer 1" xmlns="http://www.w3.org/2000/svg" viewBox="0 0 750 885.86" preserveAspectRatio="xMidYMid meet"><defs><style>.cls-2{fill:#434142}</style></defs><g id="g14"><g id="g20"><path id="path22" d="M371.16 713.9h307.11c70.13 0 70.83-74.54 63.69-111.34-3.91-24.73-45.93-24.52-50.56 0v28.72a23.93 23.93 0 01-23.86 23.85H78.74a23.92 23.92 0 01-23.85-23.85v-28.72c-4.63-24.52-46.66-24.73-50.56 0C-2.81 639.36-2.12 713.9 68 713.9h303.16zM154 0h473.58c33.27 0 60.49 28.8 60.49 64v30.6c0 43.25-58.6 43.08-58.6.29v-16.7a19.38 19.38 0 00-19.33-19.33h-474.5a19.39 19.39 0 00-19.33 19.33v16.37c0 43-55.84 42.71-55.84.93V64c0-35.2 27.22-64 60.53-64z" fill="#2c6cae"/></g><g id="g24"><path id="path26" class="cls-2" d="M676.12 351.66c32.8 15.43 55.44 47.28 55.44 83.84 0 51.56-45 93.74-100 93.74H477.31c-14.42 0-26.23-11.06-26.23-24.57v-293.4a25.83 25.83 0 0125.77-25.74h128.44c54.07 0 98.31 44.19 98.31 98.2a97.81 97.81 0 01-27.48 67.93M561 327.77h49v-.55a46.72 46.72 0 0039.51-46 46.69 46.69 0 00-46.56-46.56h-98.64v243.45h125.06a48.09 48.09 0 100-96.17H610v-.12h-49a27 27 0 110-54.05"/></g><g id="g28"><path id="path30" class="cls-2" d="M173.61 804a8.27 8.27 0 0116.54 0v44.7A37.18 37.18 0 01153 885.82a37.18 37.18 0 01-37.11-37.1V804a8.27 8.27 0 0116.54 0v44.75A20.74 20.74 0 00153 869.34a20.74 20.74 0 0020.63-20.63z"/></g><g id="g32"><path id="path34" class="cls-2" d="M251.76 869.32a8.27 8.27 0 110 16.54h-22.83a31.1 31.1 0 01-31.06-31V804a8.27 8.27 0 1116.53 0v50.81a14.68 14.68 0 0014.59 14.57h22.83z"/></g><g id="g36"><path id="path38" class="cls-2" d="M426.58 499.94a30.94 30.94 0 11-61.58 6.53l-25.32-233.33-89.81 228.15-.1.22-.25.6-.2.47v.12l-.21.47-.14.29-.21.45-.1.2-.24.47-.09.17A30.7 30.7 0 01242 513l-.1.08-.46.42a30.54 30.54 0 01-5.35 3.79l-.13.08-.59.31-.54.28-.25.12-.35.17-.37.17-.33.15-.38.17-.33.14-.32.13-.29.11-.16.07-.26.09-.41.16-.24.08a31 31 0 01-9.07 1.71h-2.27a30.84 30.84 0 01-10.13-2.11l-.41-.16h-.11l-.41-.17-.4-.17-.33-.16-.34-.16-.37-.17-.22-.11-.56-.29h-.06l-.48-.27-.27-.14a31.08 31.08 0 01-4.73-3.28l-.12-.11c-.35-.3-.69-.59-1-.9l-.77-.75c-.25-.25-.51-.51-.75-.77l-.91-1-.1-.11a30.86 30.86 0 01-3.28-4.73l-.15-.27-.27-.49v-.06l-.29-.55-.11-.22-.17-.37-.17-.35-.14-.32-.18-.4-.18-.41v-.11l-.17-.41-90.03-228.57-25.35 233.33a30.95 30.95 0 11-61.55-6.53l29.9-275.09v-.19a51.5 51.5 0 0144.21-45.19h.06c.56-.07 1.13-.13 1.69-.18A52.51 52.51 0 0199 179h.12a52.66 52.66 0 019.36 1.25 50.81 50.81 0 0136 31.09l76.53 194.38 76.52-194.38a50.82 50.82 0 0136-31.09 52.41 52.41 0 019.36-1.25h.12a52.64 52.64 0 017.82.23c.56.05 1.11.11 1.67.18h.06a51.29 51.29 0 0138.45 26.71 52.13 52.13 0 013.76 9 50.73 50.73 0 012 9.52v.19z"/></g><g id="g40"><path id="path42" class="cls-2" d="M112.77 876.62a8.26 8.26 0 11-16.41 1.93L89.27 819 64 877.59a8.25 8.25 0 01-15.17 0L23.56 819l-7.09 59.55a8.26 8.26 0 11-16.41-1.93l8.22-69.15a13.27 13.27 0 017.23-10.26 15.48 15.48 0 011.61-.72l.64-.22a15.27 15.27 0 012.43-.53h.14a14.26 14.26 0 0111.55 3.65 13.58 13.58 0 012.65 3.49 6.58 6.58 0 01.46.92l21.42 49.67 21.42-49.67a13.61 13.61 0 019.67-7.8 14.94 14.94 0 012.43-.34 15.56 15.56 0 011.81 0h.05l.61.05h.07a13.92 13.92 0 0110.29 6.61 13.21 13.21 0 011.09 2.35 12.07 12.07 0 01.45 1.62 8 8 0 01.2 1.09v.07z"/></g><g id="g44"><path id="path46" class="cls-2" d="M287.89 877.59a8.27 8.27 0 01-16.53 0v-65.34h-23.54a8.28 8.28 0 010-16.55h63.6a8.28 8.28 0 010 16.55h-23.53z"/></g><g id="g48"><path id="path50" class="cls-2" d="M339.47 877.59a8.27 8.27 0 01-16.53 0V804a8.27 8.27 0 1116.53 0z"/></g><g id="g52"><path id="path54" class="cls-2" d="M509.12 876.58a8.27 8.27 0 11-16.41 2l-2.91-23.35h-28.66a8.27 8.27 0 110-16.54h26.6l-.75-6.07v-.64a32 32 0 00-1-4.23 27.7 27.7 0 00-1.7-4.36c-3.28-6.55-9.22-11.15-16.72-11.15h-.08a17.81 17.81 0 00-4.16.5 16.85 16.85 0 00-3.7 1.39c-6.34 3.23-10.59 10.29-11.5 18.42l-5.18 46a8.25 8.25 0 11-16.41-1.81l5.17-46c1.53-13.57 9.06-25.57 20.44-31.36a33.28 33.28 0 017.3-2.67 34.45 34.45 0 018-1h.08c14.33 0 25.47 8.38 31.45 20.33a43.78 43.78 0 012.8 7 46.75 46.75 0 011.45 6.73 6.69 6.69 0 01.14.78v.06z"/></g><g id="g56"><path id="path58" class="cls-2" d="M534.43 877.59a8.27 8.27 0 01-16.54 0v-68.41a8 8 0 01.12-1.4 11.29 11.29 0 01.65-2.68 14.32 14.32 0 01.68-1.48 11.64 11.64 0 016.46-5.43 9.65 9.65 0 011.14-.31c.29-.06.58-.13.88-.17h.06a13.17 13.17 0 012-.09h.22a11.61 11.61 0 018.74 4.48l44 56.13V804a8.27 8.27 0 1116.54 0v68.08a11.62 11.62 0 01-4.31 9.05 12 12 0 01-1.69 1.15c-.33.18-.68.35-1 .5h-.09a6.91 6.91 0 01-.68.28 11.58 11.58 0 01-8.87-.5 7.13 7.13 0 01-1.06-.55 11.69 11.69 0 01-1.64-1.23 10.3 10.3 0 01-1-1.1l-.28-.32-.1-.13-44-56.11z"/></g><g id="g60"><path id="path62" class="cls-2" d="M663.6 869.32a8.27 8.27 0 110 16.54h-24.38a32.66 32.66 0 01-32.59-32.58v-24.9a32.64 32.64 0 0132.58-32.59h24.39a8.27 8.27 0 110 16.54h-24.39a16.2 16.2 0 00-16.1 16.12v24.9a16.22 16.22 0 0016.11 16.11h24.38z"/></g><g id="g64"><path id="path66" class="cls-2" d="M711.45 812.21a22.56 22.56 0 00-15.65 6.25 20.3 20.3 0 00-6.39 14.61v15.43a20.3 20.3 0 006.38 14.59 22.62 22.62 0 0015.67 6.26 22.53 22.53 0 0015.65-6.26 20.23 20.23 0 006.38-14.6v-15.43a20.22 20.22 0 00-6.37-14.59 22.58 22.58 0 00-15.67-6.26m0-16.51a39.1 39.1 0 0127.1 10.84A36.7 36.7 0 01750 833.06v15.42A36.7 36.7 0 01738.55 875a39.07 39.07 0 01-27.09 10.84A39.12 39.12 0 01684.32 875a36.73 36.73 0 01-11.41-26.48v-15.44a36.66 36.66 0 0111.43-26.49 39 39 0 0127.08-10.84z"/></g><g id="g68"><path id="path70" class="cls-2" d="M363 812.24v57.07h32a10.48 10.48 0 0010.4-10.41 10.31 10.31 0 00-2.77-7l-.32-.31a10.33 10.33 0 00-7.32-3.09h-11a8.27 8.27 0 110-16.54h3.76a10 10 0 006.23-2.9 9.87 9.87 0 002.91-7 10 10 0 00-9.89-9.88h-24zm-16.53 28v-35.91a8.34 8.34 0 01.67-3.29 8.44 8.44 0 011.86-2.84l.1-.09a8.46 8.46 0 015.43-2.36 2.68 2.68 0 01.49 0h31.9a26.41 26.41 0 0126.37 26.35 26.28 26.28 0 01-4.06 14 27.37 27.37 0 014.69 3.75c.18.17.34.36.51.55a26.86 26.86 0 017.36 18.45 26.94 26.94 0 01-26.88 26.89h-40.23a8.27 8.27 0 01-8.26-8.28z"/></g></g></svg>2-3.09v0h-11a8.27,8.27,0,1,1,0-16.54h3.76a10,10,0,0,0,6.23-2.9h0a9.87,9.87,0,0,0,2.91-7h0v0h0a10,10,0,0,0-9.89-9.88v0H363Zm-16.53,28V804.33h0a8.34,8.34,0,0,1,.67-3.29A8.44,8.44,0,0,1,349,798.2l.1-.09h0a8.46,8.46,0,0,1,5.43-2.36,2.68,2.68,0,0,1,.49,0v0h31.9v0a26.41,26.41,0,0,1,26.37,26.35h0v0h0a26.28,26.28,0,0,1-4.06,14,27.37,27.37,0,0,1,4.69,3.75c.18.17.34.36.51.55a26.86,26.86,0,0,1,7.36,18.45h0v0h0a26.94,26.94,0,0,1-26.88,26.89v0H354.68a8.27,8.27,0,0,1-8.26-8.28Z"/></g></g></svg>
