<svg version="1.1" id="svg10908" xmlns="http://www.w3.org/2000/svg" x="0" y="0" viewBox="0 0 750 205" xml:space="preserve"><style>.st0{fill:#10298e}</style><path id="path5689" class="st0" d="M166.6 65.4h-51.3c0-8.4-1-14.1-3-17-3-4.3-11.4-6.4-25.2-6.4-13.4 0-22.3 1.2-26.6 3.7S54 53.6 54 61.8c0 7.5 1.9 12.4 5.7 14.7 3.4 1.8 7.1 2.8 10.9 2.9l10.4.8c22.2 1.5 36 2.5 41.6 3.1 17.5 1.8 30.3 6.4 38.1 14 6.2 5.9 9.9 13.6 11.1 23.1.7 6.4 1.1 12.9 1 19.3 0 16.5-1.6 28.6-4.7 36.2-5.7 14.1-18.5 22.9-38.5 26.6-8.3 1.6-21.1 2.4-38.3 2.4-28.7 0-48.8-1.7-60.1-5.1-13.9-4.2-23-12.8-27.5-25.6-2.5-7.1-3.7-19-3.7-35.7h51.3v4.3c0 8.9 2.6 14.6 7.7 17.2 4 1.9 8.4 2.8 12.8 2.8h18.9c9.6 0 15.8-.5 18.4-1.5 4.7-1.9 7.8-4.9 9.3-9 .9-3.2 1.3-6.5 1.2-9.9 0-9-3.3-14.5-9.9-16.5-2.5-.8-13.9-1.9-34.3-3.2-16.4-1.2-27.8-2.3-34.2-3.4-16.8-3.1-28-9.6-33.6-19.4C2.7 91.5.2 78.9.2 62c0-12.8 1.3-23.1 4-30.9S11.1 17.5 17 13.5c8.6-6.2 19.7-9.8 33.2-10.9 11.2-1 23.7-1.5 37.3-1.5 21.5 0 36.9 1.2 46 3.7 22.3 6 33.5 22.8 33.5 50.4.1 2.3-.1 5.7-.4 10.2"/><path id="path5693" class="st0" d="M392.3 205V0h102.8c14.1 0 24.8 1.1 32.2 3.5 16.9 5.3 28.2 16.1 34 32.5 3 8.6 4.5 21.5 4.5 38.8 0 20.8-1.7 35.7-5 44.8-6.6 18-20.1 28.3-40.6 31-2.4.4-12.7.8-30.8 1.1l-9.2.3h-32.8v53h-55.1zm55.2-100.5h34.4c10.9-.4 17.5-1.2 19.9-2.5 3.2-1.8 5.5-5.4 6.5-10.8.8-5.3 1.2-10.6 1-16 0-8.7-.7-15.1-2.1-19.3-2-5.9-6.8-9.5-14.2-10.8-1.5-.2-5.1-.3-10.7-.3h-34.8v59.7z"/><path id="path5697" class="st0" d="M683.6 169.5h-73.8l-9.9 35.5h-57.1L604.5 0h83.2L750 205h-55.9l-10.5-35.5zm-11-39.9l-25.8-88.9-25.1 88.9h50.9z"/><path id="path5701" d="M316.2 28.8c21.9 0 42.6 9.9 56.4 26.9l11.9-25.5C365 11.9 339.3 1.7 312.6 1.8c-43.5 0-80.6 26.2-95.9 63.4h-23.2l-13.7 29.3h29.8c-.2 2.7-.4 5.4-.4 8.2 0 3.3.2 6.7.5 10h-15L181 142.1h36.3c15.7 36.2 52.4 61.7 95.2 61.7 20.7 0 40.9-6 58.1-17.5v-36c-26.4 30.2-72.2 33.2-102.4 6.8-5-4.4-9.4-9.4-13-15h76l13.7-29.4H244.2c-.5-3.6-.8-7.2-.8-10.8 0-2.5.1-4.9.4-7.4h109.8l13.7-29.3h-114c12.9-22.5 36.9-36.3 62.9-36.4" fill="#ffbe00"/><path id="path5705" class="st0" d="M316.2 29.7c21.6 0 42.1 9.8 55.7 26.6l.9 1.1.6-1.3 11.9-25.5.3-.6-.5-.4c-36-33.7-90.5-38.2-131.5-10.7-16.8 11.3-30 27.3-37.7 46l.8-.6H193l-.2.5-13.7 29.4-.6 1.3h31.2l-.9-1c-.2 3-.4 5.8-.4 8.3 0 3.4.2 6.7.5 10.1l.9-1h-15.5l-.2.5-13.7 29.4-.6 1.2h37.7l-.8-.5c16.4 37.8 54 62.2 96 62.2 20.9.1 41.3-6.1 58.6-17.6l.4-.3V148l-1.5 1.8c-26.1 29.8-71.4 32.8-101.2 6.7-4.9-4.3-9.2-9.3-12.8-14.8l-.7 1.4h76.6l.2-.5 13.7-29.4.6-1.2H244.2l.9.8c-.5-3.5-.8-7.1-.8-10.7 0-2.4.1-4.9.4-7.3l-.9.8h110.4l.2-.5L368 65.6l.6-1.3H253.2l.8 1.3c12.8-22.1 36.5-35.8 62.2-35.9m-63 36.4h114l-.8-1.2-13.7 29.4.8-.5H242.9l-.1.8c-.2 2.5-.4 5-.4 7.5 0 3.7.3 7.4.8 11l.1.8H345l-.8-1.3-13.7 29.4.8-.5h-77.7l.9 1.4c22.2 34 67.7 43.6 101.7 21.4a76.3 76.3 0 0015.2-13.2l-1.5-.6v36l.4-.7C353.2 197 333.1 203 312.6 203c-41.2 0-78.3-24-94.4-61.1l-.2-.5h-36.9l.8 1.3 13.7-29.4-.8.5h16l-.1-1c-.3-3.3-.5-6.7-.5-9.9 0-2.5.1-5.2.4-8.2l.1-1h-30.8l.8 1.2 13.7-29.3-.8.5h23.8l.2-.5c7.6-18.4 20.5-34.1 37.1-45.2 40.3-27 93.9-22.6 129.2 10.5l-.2-1-11.9 25.5 1.5-.2c-25.6-31.5-71.8-36.4-103.4-10.8-7 5.7-12.9 12.6-17.4 20.4l-.8 1.3h1.5z"/></svg>.4,5-0.4,7.5c0,3.7,0.3,7.4,0.8,11l0.1,0.8H345l-0.8-1.3l-13.7,29.4l0.8-0.5h-77.7l0.9,1.4c22.2,34,67.7,43.6,101.7,21.4
	c5.6-3.7,10.7-8.1,15.2-13.2l-1.5-0.6v36l0.4-0.7C353.2,197,333.1,203,312.6,203c-41.2,0-78.3-24-94.4-61.1l-0.2-0.5h-36.9l0.8,1.3
	l13.7-29.4l-0.8,0.5h16l-0.1-1c-0.3-3.3-0.5-6.7-0.5-9.9c0-2.5,0.1-5.2,0.4-8.2l0.1-1h-30.8l0.8,1.2l13.7-29.3l-0.8,0.5h23.8
	l0.2-0.5c7.6-18.4,20.5-34.1,37.1-45.2c40.3-27,93.9-22.6,129.2,10.5l-0.2-1l-11.9,25.5l1.5-0.2c-25.6-31.5-71.8-36.4-103.4-10.8
	c-7,5.7-12.9,12.6-17.4,20.4l-0.8,1.3L253.2,66.1z"/>
</svg>
